# xmcd CD database file
#
# Track frame offsets:
#	150
#	18045
#	41422
#	66880
#	81971
#	101339
#	130817
#	156381
#	201516
#	224951
#	234926
#	259168
#	273471
#	295788
#	320703
#
# Disc length: 4617 seconds
#
# Revision: 0
# Processed by: cddbd v1.5.2PL0 Copyright (c) Steve Scherf et al.
# Submitted via: CDex 1.77
#
DISCID=e112070f
DTITLE=Musica Jazz (Magazine) - Max Roach - Drum Power!!!
DYEAR=2017
DGENRE=Jazz
TTITLE0=Tuba de Nod
TTITLE1=Milano
TTITLE2=Variations on the scene
TTITLE3=Pies on Quincy
TTITLE4=Old Folks
TTITLE5=Sadiga
TTITLE6=Gandolfo's Bounce
TTITLE7=Love for sale
TTITLE8=Prelude
TTITLE9=Lepa
TTITLE10=Connie's Bounce
TTITLE11=A little sweet
TTITLE12=Tympanalli
TTITLE13=Bemsha Swing
TTITLE14=There's no you
EXTD=YEAR: 2017
EXTT0=
EXTT1=
EXTT2=
EXTT3=
EXTT4=
EXTT5=
EXTT6=
EXTT7=
EXTT8=
EXTT9=
EXTT10=
EXTT11=
EXTT12=
EXTT13=
EXTT14=
PLAYORDER=
